<svg width="34" height="34" viewBox="0 0 34 34" fill="none" xmlns="http://www.w3.org/2000/svg">
<g filter="url(#filter0_d_186_249)">
<circle cx="16" cy="16" r="12" fill="#D9D9D9"/>
</g>
<path d="M22.75 11.5H21.25L20.2975 10.5475C19.953 10.2027 19.4874 10.0062 19 10H17.125C17.0199 9.5791 16.7796 9.20434 16.4408 8.93334C16.1021 8.66234 15.6837 8.51009 15.25 8.5V13.27C15.2885 14.0274 15.588 14.7482 16.0975 15.31C16.9364 16.1165 18.0337 16.6 19.195 16.675L21.7825 15.64C22.0861 15.5181 22.3594 15.3315 22.5835 15.0932C22.8076 14.8549 22.977 14.5705 23.08 14.26L23.5 13.1125C23.5114 13.0354 23.5114 12.9571 23.5 12.88V12.25C23.5 12.0511 23.421 11.8603 23.2803 11.7197C23.1397 11.579 22.9489 11.5 22.75 11.5ZM19 13C18.8517 13 18.7067 12.956 18.5833 12.8736C18.46 12.7912 18.3638 12.6741 18.3071 12.537C18.2503 12.4 18.2355 12.2492 18.2644 12.1037C18.2933 11.9582 18.3648 11.8246 18.4697 11.7197C18.5746 11.6148 18.7082 11.5433 18.8537 11.5144C18.9992 11.4855 19.15 11.5003 19.287 11.5571C19.424 11.6139 19.5412 11.71 19.6236 11.8333C19.706 11.9567 19.75 12.1017 19.75 12.25C19.75 12.4489 19.671 12.6397 19.5303 12.7803C19.3897 12.921 19.1989 13 19 13Z" fill="#F0F0F0"/>
<path d="M15.535 15.805C15.0118 15.232 14.6699 14.517 14.5525 13.75H11.5C11.2996 13.7633 11.0986 13.7335 10.9106 13.6629C10.7226 13.5922 10.5519 13.4821 10.4099 13.3401C10.2679 13.1981 10.1578 13.0273 10.0871 12.8393C10.0164 12.6513 9.98673 12.4504 9.99999 12.25C9.99999 12.0511 9.92097 11.8603 9.78032 11.7197C9.63967 11.579 9.4489 11.5 9.24999 11.5C9.05108 11.5 8.86031 11.579 8.71966 11.7197C8.57901 11.8603 8.49999 12.0511 8.49999 12.25C8.50753 12.7705 8.63048 13.2828 8.85999 13.75C9.11301 14.2406 9.51107 14.6413 9.99999 14.8975V23.5H12.25V19.75H16.75V23.5H19V17.4025C17.6917 17.2994 16.463 16.733 15.535 15.805Z" fill="#F0F0F0"/>
<defs>
<filter id="filter0_d_186_249" x="0" y="0" width="34" height="34" filterUnits="userSpaceOnUse" color-interpolation-filters="sRGB">
<feFlood flood-opacity="0" result="BackgroundImageFix"/>
<feColorMatrix in="SourceAlpha" type="matrix" values="0 0 0 0 0 0 0 0 0 0 0 0 0 0 0 0 0 0 127 0" result="hardAlpha"/>
<feOffset dx="1" dy="1"/>
<feGaussianBlur stdDeviation="2.5"/>
<feComposite in2="hardAlpha" operator="out"/>
<feColorMatrix type="matrix" values="0 0 0 0 0 0 0 0 0 0 0 0 0 0 0 0 0 0 0.25 0"/>
<feBlend mode="normal" in2="BackgroundImageFix" result="effect1_dropShadow_186_249"/>
<feBlend mode="normal" in="SourceGraphic" in2="effect1_dropShadow_186_249" result="shape"/>
</filter>
</defs>
</svg>
