<svg width="24" height="24" viewBox="0 0 24 24" fill="none" xmlns="http://www.w3.org/2000/svg">
<circle cx="12" cy="12" r="12" fill="#D9D9D9"/>
<path d="M18.75 7.5H17.25L16.2975 6.5475C15.953 6.20267 15.4874 6.00618 15 6H13.125C13.0199 5.5791 12.7796 5.20434 12.4408 4.93334C12.1021 4.66234 11.6837 4.51009 11.25 4.5V9.27C11.2885 10.0274 11.588 10.7482 12.0975 11.31C12.9364 12.1165 14.0337 12.6 15.195 12.675L17.7825 11.64C18.0861 11.5181 18.3594 11.3315 18.5835 11.0932C18.8076 10.8549 18.977 10.5705 19.08 10.26L19.5 9.1125C19.5114 9.03542 19.5114 8.95708 19.5 8.88V8.25C19.5 8.05109 19.421 7.86032 19.2803 7.71967C19.1397 7.57902 18.9489 7.5 18.75 7.5ZM15 9C14.8517 9 14.7067 8.95601 14.5833 8.8736C14.46 8.79119 14.3638 8.67406 14.3071 8.53701C14.2503 8.39997 14.2355 8.24917 14.2644 8.10368C14.2933 7.9582 14.3648 7.82456 14.4697 7.71967C14.5746 7.61478 14.7082 7.54335 14.8537 7.51441C14.9992 7.48547 15.15 7.50032 15.287 7.55709C15.424 7.61386 15.5412 7.70999 15.6236 7.83332C15.706 7.95666 15.75 8.10166 15.75 8.25C15.75 8.44891 15.671 8.63968 15.5303 8.78033C15.3897 8.92098 15.1989 9 15 9Z" fill="#F0F0F0"/>
<path d="M11.535 11.805C11.0118 11.232 10.6699 10.517 10.5525 9.75H7.49999C7.29958 9.76326 7.09865 9.73355 6.91065 9.66285C6.72265 9.59216 6.55192 9.48212 6.4099 9.3401C6.26787 9.19807 6.15783 9.02735 6.08714 8.83935C6.01645 8.65135 5.98673 8.45041 5.99999 8.25C5.99999 8.05109 5.92097 7.86032 5.78032 7.71967C5.63967 7.57902 5.4489 7.5 5.24999 7.5C5.05108 7.5 4.86031 7.57902 4.71966 7.71967C4.57901 7.86032 4.49999 8.05109 4.49999 8.25C4.50753 8.77048 4.63048 9.2828 4.85999 9.75C5.11301 10.2406 5.51107 10.6413 5.99999 10.8975V19.5H8.24999V15.75H12.75V19.5H15V13.4025C13.6917 13.2994 12.463 12.733 11.535 11.805Z" fill="#F0F0F0"/>
</svg>
