<svg width="44" height="44" viewBox="0 0 44 44" fill="none" xmlns="http://www.w3.org/2000/svg">
<g filter="url(#filter0_d_157_245)">
<circle cx="21" cy="21" r="17" fill="#D9D9D9"/>
</g>
<path d="M15 27C15 25 19 23.9 21 23.9C23 23.9 27 25 27 27V28H15M24 19C24 19.7956 23.6839 20.5587 23.1213 21.1213C22.5587 21.6839 21.7956 22 21 22C20.2044 22 19.4413 21.6839 18.8787 21.1213C18.3161 20.5587 18 19.7956 18 19C18 18.2044 18.3161 17.4413 18.8787 16.8787C19.4413 16.3161 20.2044 16 21 16C21.7956 16 22.5587 16.3161 23.1213 16.8787C23.6839 17.4413 24 18.2044 24 19ZM12 15V29C12 29.5304 12.2107 30.0391 12.5858 30.4142C12.9609 30.7893 13.4696 31 14 31H28C28.5304 31 29.0391 30.7893 29.4142 30.4142C29.7893 30.0391 30 29.5304 30 29V15C30 14.4696 29.7893 13.9609 29.4142 13.5858C29.0391 13.2107 28.5304 13 28 13H14C13.4696 13 12.9609 13.2107 12.5858 13.5858C12.2107 13.9609 12 14.4696 12 15Z" fill="white"/>
<defs>
<filter id="filter0_d_157_245" x="0" y="0" width="44" height="44" filterUnits="userSpaceOnUse" color-interpolation-filters="sRGB">
<feFlood flood-opacity="0" result="BackgroundImageFix"/>
<feColorMatrix in="SourceAlpha" type="matrix" values="0 0 0 0 0 0 0 0 0 0 0 0 0 0 0 0 0 0 127 0" result="hardAlpha"/>
<feOffset dx="1" dy="1"/>
<feGaussianBlur stdDeviation="2.5"/>
<feComposite in2="hardAlpha" operator="out"/>
<feColorMatrix type="matrix" values="0 0 0 0 0 0 0 0 0 0 0 0 0 0 0 0 0 0 0.25 0"/>
<feBlend mode="normal" in2="BackgroundImageFix" result="effect1_dropShadow_157_245"/>
<feBlend mode="normal" in="SourceGraphic" in2="effect1_dropShadow_157_245" result="shape"/>
</filter>
</defs>
</svg>
