<svg width="34" height="34" viewBox="0 0 34 34" fill="none" xmlns="http://www.w3.org/2000/svg">
<circle cx="17" cy="17" r="17" fill="#D9D9D9"/>
<path d="M11 23C11 21 15 19.9 17 19.9C19 19.9 23 21 23 23V24H11M20 15C20 15.7956 19.6839 16.5587 19.1213 17.1213C18.5587 17.6839 17.7956 18 17 18C16.2044 18 15.4413 17.6839 14.8787 17.1213C14.3161 16.5587 14 15.7956 14 15C14 14.2044 14.3161 13.4413 14.8787 12.8787C15.4413 12.3161 16.2044 12 17 12C17.7956 12 18.5587 12.3161 19.1213 12.8787C19.6839 13.4413 20 14.2044 20 15ZM8 11V25C8 25.5304 8.21071 26.0391 8.58579 26.4142C8.96086 26.7893 9.46957 27 10 27H24C24.5304 27 25.0391 26.7893 25.4142 26.4142C25.7893 26.0391 26 25.5304 26 25V11C26 10.4696 25.7893 9.96086 25.4142 9.58579C25.0391 9.21071 24.5304 9 24 9H10C9.46957 9 8.96086 9.21071 8.58579 9.58579C8.21071 9.96086 8 10.4696 8 11Z" fill="white"/>
</svg>
