<svg width="48" height="48" viewBox="0 0 48 48" fill="none" xmlns="http://www.w3.org/2000/svg">
<path d="M22 44C30.8366 44 38 37.732 38 30C38 22.268 30.8366 16 22 16C13.1634 16 6 22.268 6 30C6 37.732 13.1634 44 22 44Z" fill="#83CBFF" stroke="#83CBFF" stroke-width="4" stroke-linecap="round" stroke-linejoin="round"/>
<path d="M26 24C27.3333 24.1667 30 25 31 29" stroke="white" stroke-width="4" stroke-linecap="round"/>
<path d="M8 12C10.2091 12 12 10.2091 12 8C12 5.79086 10.2091 4 8 4C5.79086 4 4 5.79086 4 8C4 10.2091 5.79086 12 8 12Z" fill="#83CBFF" stroke="#83CBFF" stroke-width="4" stroke-linecap="round" stroke-linejoin="round"/>
<path d="M41 16C42.6569 16 44 14.6569 44 13C44 11.3431 42.6569 10 41 10C39.3431 10 38 11.3431 38 13C38 14.6569 39.3431 16 41 16Z" fill="#83CBFF" stroke="#83CBFF" stroke-width="4" stroke-linecap="round" stroke-linejoin="round"/>
</svg>
