<svg width="45" height="45" viewBox="0 0 45 45" fill="none" xmlns="http://www.w3.org/2000/svg">
<path d="M22.5 39.375C36.2109 39.375 39.375 30.0994 39.375 20.3906C39.375 10.6819 31.8192 2.8125 22.5 2.8125C13.1808 2.8125 5.625 10.6819 5.625 20.3906C5.625 30.0994 9.14062 39.375 22.5 39.375Z" fill="#AEDDFF"/>
<path d="M7.03125 20.3906C7.03125 11.6536 13.6294 4.61812 21.7997 4.23562C22.2663 4.21386 22.7337 4.21386 23.2003 4.23562C31.3706 4.61812 37.9688 11.6536 37.9688 20.3906C37.9688 20.7745 37.9547 21.1556 37.9308 21.5339C37.357 14.2172 30.33 11.25 22.5 11.25C14.67 11.25 7.64297 14.2172 7.06922 21.5339C7.04391 21.1556 7.03125 20.7745 7.03125 20.3906Z" fill="#83CBFF"/>
<path d="M22.5 37.9688C31.6041 37.9688 39.0248 30.4594 39.3623 21.06L39.375 21.0938V25.3125C39.375 33.4674 33.75 42.1875 22.5 42.1875C11.25 42.1875 5.625 33.4674 5.625 25.3125C5.625 25.3125 5.65594 20.9813 5.625 21.0938L5.63625 21.0516C5.96953 30.4509 13.3917 37.9688 22.5 37.9688Z" fill="#83CBFF"/>
<path d="M37.9308 21.5339C37.3683 29.977 30.6281 36.5625 22.5 36.5625C14.3733 36.5625 7.63031 29.9784 7.06921 21.5325C7.64296 14.2172 14.67 8.4375 22.5 8.4375C30.33 8.4375 37.357 14.2172 37.9308 21.5339Z" fill="#00A6ED"/>
<path d="M16.1719 18.2812C16.7313 18.2812 17.2678 18.059 17.6634 17.6634C18.059 17.2678 18.2812 16.7313 18.2812 16.1719C18.2812 15.6124 18.059 15.0759 17.6634 14.6803C17.2678 14.2847 16.7313 14.0625 16.1719 14.0625C15.6124 14.0625 15.0759 14.2847 14.6803 14.6803C14.2847 15.0759 14.0625 15.6124 14.0625 16.1719C14.0625 16.7313 14.2847 17.2678 14.6803 17.6634C15.0759 18.059 15.6124 18.2812 16.1719 18.2812ZM27.4219 23.9062C28.3543 23.9062 29.2485 23.5359 29.9078 22.8765C30.5671 22.2172 30.9375 21.323 30.9375 20.3906C30.9375 19.4582 30.5671 18.564 29.9078 17.9047C29.2485 17.2454 28.3543 16.875 27.4219 16.875C26.4895 16.875 25.5953 17.2454 24.936 17.9047C24.2766 18.564 23.9062 19.4582 23.9062 20.3906C23.9062 21.323 24.2766 22.2172 24.936 22.8765C25.5953 23.5359 26.4895 23.9062 27.4219 23.9062ZM22.5 27.4219C22.5 28.3543 22.1296 29.2485 21.4703 29.9078C20.811 30.5671 19.9168 30.9375 18.9844 30.9375C18.052 30.9375 17.1578 30.5671 16.4985 29.9078C15.8391 29.2485 15.4688 28.3543 15.4688 27.4219C15.4688 26.4895 15.8391 25.5953 16.4985 24.936C17.1578 24.2766 18.052 23.9062 18.9844 23.9062C19.9168 23.9062 20.811 24.2766 21.4703 24.936C22.1296 25.5953 22.5 26.4895 22.5 27.4219Z" fill="#E2FF92"/>
</svg>
