<svg width="44" height="34" viewBox="0 0 44 34" fill="none" xmlns="http://www.w3.org/2000/svg">
<path d="M36.5431 7.70313L36.6751 8.00006H37C37.8202 8.00006 38.4038 8.19443 38.8092 8.47223C39.2132 8.74907 39.4722 9.13027 39.6103 9.56174C39.8942 10.4483 39.6577 11.5219 39.114 12.1821C37.4642 14.1856 34.6503 15.556 31.2428 16.3732C27.847 17.1875 23.9277 17.4364 20.1496 17.2506C16.371 17.0648 12.7602 16.4455 9.98308 15.5402C8.59361 15.0873 7.43002 14.5683 6.56234 14.0077C5.68482 13.4408 5.16565 12.8675 4.9699 12.3291C4.19643 10.2021 4.59813 9.27231 5.09467 8.85946C5.66085 8.38869 6.61924 8.33374 7.40194 8.49028L7.86944 8.58378L7.98507 8.12126C8.34555 6.67936 9.14907 5.97248 9.98501 5.63953C10.8501 5.29496 11.7897 5.33786 12.3787 5.48513L12.8874 5.61232L12.9903 5.09812C13.1758 4.17049 13.5108 3.55585 13.9005 3.15193C14.2885 2.74969 14.7593 2.52671 15.2694 2.42862C16.3136 2.22783 17.4979 2.55811 18.2764 2.94735L18.6585 3.13842L18.9069 2.79075C20.0888 1.13604 21.3076 0.64579 22.3252 0.747552C23.3704 0.852067 24.3742 1.59564 25.0712 2.75737L25.3201 3.17208L25.7428 2.93722C26.5825 2.47076 27.2905 2.30375 27.8784 2.3126C28.4637 2.32141 28.961 2.50486 29.3827 2.78955C30.2434 3.37059 30.7915 4.37858 31.0211 5.14374L31.2019 5.7463L31.7481 5.43418C32.3712 5.07813 32.9255 4.96902 33.4115 5.0035C33.9012 5.03823 34.3557 5.22132 34.7697 5.5016C35.6102 6.07064 36.2341 7.008 36.5431 7.70313Z" fill="#D3883E" stroke="#D3883E" stroke-linecap="round"/>
<path d="M39.3087 13.2422C39.3913 13.4108 39.4912 13.6158 39.6045 13.8503C39.9393 14.5433 40.3906 15.4927 40.8573 16.5194C41.8019 18.5975 42.7733 20.9161 43.0097 22.0981C43.264 23.3697 43.4794 24.4952 43.1461 25.6063C42.8216 26.6881 41.9402 27.8501 39.7572 29.0629C35.3562 31.5079 30.9467 32.5014 22.4853 33C12.0445 32.9986 7.15284 31.5059 3.265 29.076C1.44094 27.936 0.865309 26.2339 0.748412 24.7726C0.689791 24.0399 0.748379 23.3769 0.822318 22.8963C0.859175 22.6568 0.899538 22.4645 0.930164 22.3339C0.945465 22.2686 0.958298 22.2189 0.966993 22.1866C0.969099 22.1787 0.970962 22.1719 0.972556 22.1662L4.70307 13.3062C8.42894 16.1428 14.7699 17.6275 21.2454 17.6875C27.8163 17.7483 34.6837 16.3443 39.3087 13.2422Z" fill="#00A6ED" stroke="#00A6ED"/>
<path d="M41.3512 19.9101C40.8669 18.3965 40.0404 16.2602 38.6562 13.6635L39.3036 13.2318C39.3872 13.4024 39.4889 13.611 39.6045 13.8503C39.9393 14.5433 40.3907 15.4927 40.8573 16.5194C41.8019 18.5975 42.7733 20.9161 43.0097 22.0981C43.2641 23.3697 43.4794 24.4952 43.1461 25.6063C42.8536 26.5813 42.1087 27.6216 40.3661 28.7055C41.1234 27.69 41.5574 26.6398 41.7972 25.6934C42.0289 24.7789 42.0786 23.9663 42.0703 23.3807C42.0661 23.0875 42.0474 22.8498 42.0293 22.683C42.0203 22.5996 42.0113 22.5337 42.0044 22.4874C42.001 22.4642 41.998 22.4459 41.9958 22.4327L41.9935 22.4196L41.9927 22.4143L41.9871 22.379C41.9822 22.3487 41.9748 22.3052 41.9644 22.2486C41.9437 22.1356 41.9111 21.9706 41.8627 21.7568C41.7658 21.3291 41.6058 20.7057 41.3512 19.9101Z" fill="#9EDAF3" stroke="#9EDAF3"/>
<path d="M9 12.4998C9 9.99987 13 9.5 13.5 12.4998" stroke="#F3AD61" stroke-width="2" stroke-linecap="round"/>
<path d="M15 7.06669C15 4.56676 19 4.06689 19.5 7.06669" stroke="#F3AD61" stroke-width="2" stroke-linecap="round"/>
<path d="M20 12.0667C20 9.56676 24 9.06689 24.5 12.0667" stroke="#F3AD61" stroke-width="2" stroke-linecap="round"/>
<path d="M25 7.06669C25 4.56676 29 4.06689 29.5 7.06669" stroke="#F3AD61" stroke-width="2" stroke-linecap="round"/>
<path d="M30 12.0667C30 9.56676 34 9.06689 34.5 12.0667" stroke="#F3AD61" stroke-width="2" stroke-linecap="round"/>
<path d="M23.14 24.04C23.92 24.04 24.4 22.9 24.4 22.18C24.4 21.58 24.1 20.86 23.5 20.86C22.72 20.86 22.24 22 22.24 22.72C22.24 23.32 22.54 24.04 23.14 24.04ZM20.86 24.04C21.46 24.04 21.76 23.32 21.76 22.72C21.76 21.94 21.28 20.8 20.5 20.8C19.9 20.8 19.6 21.52 19.6 22.12C19.54 22.9 20.02 24.04 20.86 24.04ZM25.3 23.44C24.52 23.44 23.98 24.52 23.98 25.3C23.98 25.84 24.22 26.38 24.76 26.38C25.54 26.38 26.08 25.3 26.08 24.52C26.08 23.98 25.78 23.44 25.3 23.44ZM20.08 25.3C20.08 24.52 19.48 23.44 18.76 23.44C18.22 23.44 17.98 23.98 17.98 24.52C17.98 25.3 18.58 26.38 19.3 26.38C19.84 26.38 20.08 25.84 20.08 25.3ZM22 25.18C20.8 25.18 19.18 27.1 19.18 28.42C19.18 29.02 19.6 29.2 20.08 29.2C20.8 29.2 21.34 28.72 22 28.72C22.6 28.72 23.14 29.2 23.8 29.2C24.28 29.2 24.82 29.08 24.82 28.42C24.82 27.1 23.2 25.18 22 25.18Z" fill="#9EDAF3"/>
</svg>
