<svg width="40" height="40" viewBox="0 0 40 40" fill="none" xmlns="http://www.w3.org/2000/svg">
<path d="M36.5 8.50018V33.5002C36.4999 33.7132 36.4453 33.9227 36.3415 34.1087C36.2376 34.2948 36.088 34.4512 35.9067 34.5631C35.7254 34.675 35.5186 34.7388 35.3057 34.7483C35.0929 34.7578 34.8811 34.7127 34.6906 34.6174L30.25 32.3971L25.8094 34.6174C25.6357 34.7043 25.4442 34.7495 25.25 34.7495C25.0558 34.7495 24.8643 34.7043 24.6906 34.6174L20.25 32.3971L15.8094 34.6174C15.6357 34.7043 15.4442 34.7495 15.25 34.7495C15.0558 34.7495 14.8643 34.7043 14.6906 34.6174L10.25 32.3971L5.80938 34.6174C5.61885 34.7127 5.40712 34.7578 5.19428 34.7483C4.98144 34.7388 4.77457 34.675 4.59329 34.5631C4.41201 34.4512 4.26235 34.2948 4.15852 34.1087C4.05468 33.9227 4.00011 33.7132 4 33.5002V8.50018C4 7.83714 4.26339 7.20125 4.73223 6.73241C5.20107 6.26357 5.83696 6.00018 6.5 6.00018H34C34.663 6.00018 35.2989 6.26357 35.7678 6.73241C36.2366 7.20125 36.5 7.83714 36.5 8.50018Z" fill="#00A6ED"/>
<path d="M11.5 16H16.5V23.5H11.5V16ZM36.5 8.5V33.5C36.4999 33.713 36.4453 33.9225 36.3415 34.1086C36.2376 34.2946 36.088 34.451 35.9067 34.5629C35.7254 34.6749 35.5186 34.7386 35.3057 34.7481C35.0929 34.7576 34.8811 34.7125 34.6906 34.6172L30.25 32.3969L25.8094 34.6172C25.6357 34.7041 25.4442 34.7493 25.25 34.7493C25.0558 34.7493 24.8643 34.7041 24.6906 34.6172L20.25 32.3969L15.8094 34.6172C15.6357 34.7041 15.4442 34.7493 15.25 34.7493C15.0558 34.7493 14.8643 34.7041 14.6906 34.6172L10.25 32.3969L5.80938 34.6172C5.61885 34.7125 5.40712 34.7576 5.19428 34.7481C4.98144 34.7386 4.77457 34.6749 4.59329 34.5629C4.41201 34.451 4.26235 34.2946 4.15852 34.1086C4.05468 33.9225 4.00011 33.713 4 33.5V8.5C4 7.83696 4.26339 7.20107 4.73223 6.73223C5.20107 6.26339 5.83696 6 6.5 6H34C34.663 6 35.2989 6.26339 35.7678 6.73223C36.2366 7.20107 36.5 7.83696 36.5 8.5ZM19 14.75C19 14.4185 18.8683 14.1005 18.6339 13.8661C18.3995 13.6317 18.0815 13.5 17.75 13.5H10.25C9.91848 13.5 9.60054 13.6317 9.36612 13.8661C9.1317 14.1005 9 14.4185 9 14.75V24.75C9 25.0815 9.1317 25.3995 9.36612 25.6339C9.60054 25.8683 9.91848 26 10.25 26H17.75C18.0815 26 18.3995 25.8683 18.6339 25.6339C18.8683 25.3995 19 25.0815 19 24.75V14.75ZM31.5 22.25C31.5 21.9185 31.3683 21.6005 31.1339 21.3661C30.8995 21.1317 30.5815 21 30.25 21H22.75C22.4185 21 22.1005 21.1317 21.8661 21.3661C21.6317 21.6005 21.5 21.9185 21.5 22.25C21.5 22.5815 21.6317 22.8995 21.8661 23.1339C22.1005 23.3683 22.4185 23.5 22.75 23.5H30.25C30.5815 23.5 30.8995 23.3683 31.1339 23.1339C31.3683 22.8995 31.5 22.5815 31.5 22.25ZM31.5 17.25C31.5 16.9185 31.3683 16.6005 31.1339 16.3661C30.8995 16.1317 30.5815 16 30.25 16H22.75C22.4185 16 22.1005 16.1317 21.8661 16.3661C21.6317 16.6005 21.5 16.9185 21.5 17.25C21.5 17.5815 21.6317 17.8995 21.8661 18.1339C22.1005 18.3683 22.4185 18.5 22.75 18.5H30.25C30.5815 18.5 30.8995 18.3683 31.1339 18.1339C31.3683 17.8995 31.5 17.5815 31.5 17.25Z" fill="#9EDAF3"/>
</svg>
