<svg width="58" height="58" viewBox="0 0 58 58" fill="none" xmlns="http://www.w3.org/2000/svg">
<g clip-path="url(#clip0_102_860)">
<path d="M26.3025 30.7555C21.6977 26.2176 18.452 22.0458 19.0513 21.4377L14.3774 26.1805C9.83994 30.7848 9.89369 38.1955 14.4984 42.7334C19.1023 47.2704 26.5135 47.2162 31.0509 42.6119L35.7248 37.8692C35.1256 38.4773 30.9059 35.292 26.3025 30.7555Z" fill="#E2FF92"/>
<path d="M42.4514 14.3685C37.8467 9.83063 30.4364 9.88482 25.8985 14.4896L19.0513 21.4377C18.452 22.0457 21.6977 26.2175 26.3025 30.7554C30.9064 35.2924 35.1251 38.4776 35.7248 37.8691L42.572 30.921C47.1095 26.3158 47.0548 18.9051 42.4514 14.3685Z" fill="#00A6ED"/>
<path d="M38.2233 33.1656C38.0365 33.3618 37.8126 33.5189 37.5644 33.6277C37.3163 33.7364 37.049 33.7947 36.7782 33.7991C36.5073 33.8034 36.2383 33.7538 35.9868 33.653C35.7353 33.5523 35.5065 33.4025 35.3135 33.2123C35.1205 33.0222 34.9674 32.7955 34.863 32.5455C34.7586 32.2955 34.705 32.0273 34.7054 31.7564C34.7058 31.4855 34.7601 31.2174 34.8653 30.9677C34.9704 30.718 35.1242 30.4918 35.3177 30.3022L38.5088 27.0641C38.8885 26.6788 39.4057 26.4601 39.9466 26.4561C40.4876 26.4522 41.008 26.6633 41.3933 27.043C41.7786 27.4227 41.9972 27.9399 42.0012 28.4809C42.0052 29.0218 41.7941 29.5422 41.4143 29.9275L38.2233 33.1656Z" fill="#9EDAF3"/>
</g>
<defs>
<clipPath id="clip0_102_860">
<rect width="40" height="40" fill="white" transform="translate(28.7725 0.888184) rotate(44.581)"/>
</clipPath>
</defs>
</svg>
