<svg width="45" height="45" viewBox="0 0 45 45" fill="none" xmlns="http://www.w3.org/2000/svg">
<path d="M8.46422 7.03125C8.64717 7.0296 8.82799 6.9919 8.99636 6.92031C9.16473 6.84873 9.31733 6.74466 9.44546 6.61406C9.57358 6.48346 9.6747 6.32888 9.74304 6.15917C9.81138 5.98946 9.84561 5.80794 9.84375 5.625C9.84375 4.84875 9.225 4.21875 8.46422 4.21875H7.03125L5.625 5.625L7.03125 7.03125H8.46422ZM25.3125 28.2656C25.3125 23.9062 28.2262 21.0698 32.3438 21.0938C36.5625 21.1191 39.375 24.1608 39.375 28.125V30.9445H36.5625V28.125C36.5625 25.0523 35.1562 23.9062 32.3438 23.9062C29.3962 23.9062 28.125 25.1916 28.125 28.125V33.2184C28.125 38.1698 24.4927 42.1875 19.6875 42.1875C14.8823 42.1875 11.25 38.1558 11.25 33.2184V26.6414C5.94844 26.0395 2.8125 22.0008 2.82375 16.1719L2.82234 16.0453C2.81812 15.8906 2.8125 15.6333 2.8125 15.4688L4.21875 14.0625C4.21875 14.0625 5.63063 15.5883 5.63063 15.4688C5.65172 21.0938 8.44875 23.9062 12.6619 23.9062C16.875 23.9062 19.6875 21.0938 19.6875 15.4688C19.6875 15.66 21.0938 14.0625 21.0938 14.0625L22.5 15.4688V16.1719C22.5 22.0036 19.3697 26.0437 14.0625 26.6414V33.2184C14.0625 36.4317 16.5684 39.375 19.6875 39.375C22.8066 39.375 25.3125 36.4317 25.3125 33.2184V28.2656ZM15.4688 5.625C15.4688 6.40125 16.0875 7.03125 16.8483 7.03125H18.2812L19.6875 5.625L18.2812 4.21875H16.8483C16.6653 4.2204 16.4845 4.2581 16.3161 4.32969C16.1478 4.40127 15.9952 4.50534 15.867 4.63594C15.7389 4.76654 15.6378 4.92112 15.5695 5.09083C15.5011 5.26054 15.4669 5.44206 15.4688 5.625Z" fill="#635994"/>
<path d="M6.46594 4.21875H7.03125V7.03125H6.32813C5.6475 7.03125 5.625 7.38281 5.625 7.73438V15.4688H2.8125V7.89047C2.81101 6.91938 3.19486 5.98736 3.87981 5.29898C4.56476 4.6106 5.49485 4.2221 6.46594 4.21875ZM37.9688 35.1562C38.5228 35.1562 39.0714 35.0471 39.5832 34.8351C40.095 34.6231 40.5601 34.3124 40.9519 33.9206C41.3436 33.5289 41.6544 33.0638 41.8664 32.5519C42.0784 32.0401 42.1875 31.4915 42.1875 30.9375C42.1875 30.3835 42.0784 29.8349 41.8664 29.3231C41.6544 28.8112 41.3436 28.3461 40.9519 27.9544C40.5601 27.5626 40.095 27.2519 39.5832 27.0399C39.0714 26.8279 38.5228 26.7188 37.9688 26.7188C36.8499 26.7188 35.7768 27.1632 34.9856 27.9544C34.1945 28.7456 33.75 29.8186 33.75 30.9375C33.75 32.0564 34.1945 33.1294 34.9856 33.9206C35.7768 34.7118 36.8499 35.1562 37.9688 35.1562ZM18.2813 4.21875H18.8466C19.8177 4.2221 20.7477 4.6106 21.4327 5.29898C22.1176 5.98736 22.5015 6.91938 22.5 7.89047V15.4688H19.6875V7.73438C19.6875 7.38281 19.665 7.03125 18.9844 7.03125H18.2813V4.21875Z" fill="#00A6ED"/>
<path d="M37.9688 33.0469C38.5282 33.0469 39.0647 32.8246 39.4603 32.4291C39.8559 32.0335 40.0781 31.4969 40.0781 30.9375C40.0781 30.3781 39.8559 29.8415 39.4603 29.4459C39.0647 29.0504 38.5282 28.8281 37.9688 28.8281C37.4093 28.8281 36.8728 29.0504 36.4772 29.4459C36.0816 29.8415 35.8594 30.3781 35.8594 30.9375C35.8594 31.4969 36.0816 32.0335 36.4772 32.4291C36.8728 32.8246 37.4093 33.0469 37.9688 33.0469Z" fill="#3F5FFF"/>
</svg>
