<svg width="40" height="40" viewBox="0 0 40 40" fill="none" xmlns="http://www.w3.org/2000/svg">
<path d="M30.0125 20.7875C30.0125 22.2375 30.5375 23.625 31.45 24.75C32.15 25.6125 32.5625 26.7375 32.5 27.95C32.3875 30.375 30.4375 32.35 28.0125 32.475C25.7375 32.6 23.775 31.1 23.1875 29.0375H19.35C19.9875 33.15 23.5625 36.2875 27.875 36.2375C32.4125 36.175 36.1375 32.5 36.25 27.9625C36.2944 26.287 35.8422 24.6357 34.9503 23.2167C34.0584 21.7976 32.7665 20.674 31.2375 19.9875C31.1045 19.9295 30.9591 19.9054 30.8145 19.9175C30.6699 19.9296 30.5305 19.9775 30.409 20.0568C30.2875 20.1362 30.1877 20.2445 30.1184 20.3721C30.0492 20.4996 30.0128 20.6424 30.0125 20.7875Z" fill="#A56953"/>
<path d="M32.5625 2.5L28.9125 12.3375C28.4918 13.4889 27.7282 14.4837 26.7247 15.1877C25.7211 15.8918 24.5259 16.2712 23.3 16.275H16.2625V18.15H23.3C26.5875 18.15 29.55 16.075 30.675 12.9875L34.5625 2.5H32.5625Z" fill="#00A6ED"/>
<path d="M8.76247 22.5V29.7625C8.76247 29.9375 8.73747 30.1125 8.69997 30.275L6.50622 37.0913C6.49103 37.1382 6.48716 37.188 6.49492 37.2367C6.50268 37.2854 6.52185 37.3315 6.55086 37.3714C6.57988 37.4113 6.61791 37.4437 6.66186 37.466C6.7058 37.4884 6.75442 37.5 6.80372 37.5H9.89747C9.96355 37.5 10.0279 37.4791 10.0814 37.4403C10.1349 37.4014 10.1746 37.3466 10.195 37.2837L12.2625 30.925C12.425 30.325 12.5125 29.6875 12.5125 29.0625V22.5H8.76247Z" fill="#D3883E"/>
<path d="M17.5125 15L22.85 23.95L29.8637 27.5C29.9625 28.1238 30.0125 28.7588 30.0125 29.4V32.325C30.0125 35.1875 27.7 37.5 24.8375 37.5H14.3875C14.0425 37.5 13.755 37.2163 13.84 36.8813C13.979 36.344 14.2922 35.868 14.7305 35.5276C15.1688 35.1872 15.7075 35.0017 16.2625 35V33.55C16.2625 32.2713 16.7625 31.1088 17.58 30.2475L15.0125 28.75V29.525C15.0125 30.15 14.925 30.7875 14.7625 31.3875L12.7712 37.0813C12.7285 37.2036 12.6487 37.3097 12.543 37.3847C12.4373 37.4597 12.3109 37.5 12.1812 37.5H9.75125C9.65163 37.5001 9.55345 37.4763 9.46488 37.4307C9.37631 37.3852 9.29991 37.3191 9.24206 37.238C9.18421 37.1569 9.14658 37.0632 9.1323 36.9646C9.11803 36.866 9.12752 36.7654 9.16 36.6713L11.2125 30.7125C11.25 30.55 11.275 30.375 11.275 30.2V26C9.8125 25.45 8.77499 24.05 8.77499 22.4L8.7625 18C8.7625 17.725 8.52499 17.5 8.24999 17.5H7.48749C4.72499 17.5 3.73749 15.25 3.74999 12.4875V12.15C3.74999 11.65 5.12499 11.25 5.62499 11.25H6.8875C7.2875 11.25 7.65 11.05 7.86249 10.725L8.87499 9.18751C9.21505 8.66911 9.67873 8.24345 10.2243 7.94887C10.7698 7.65428 11.38 7.50003 12 7.50001H13.8L13.7625 4.50001C13.7625 3.93751 14.3875 3.57501 14.8625 3.87501C16.4875 4.91251 17.5125 6.76251 17.5125 8.72501V15Z" fill="#F3AD61"/>
<path d="M18.125 15.3675V17.1875C18.125 17.4361 18.0262 17.6746 17.8504 17.8504C17.6746 18.0262 17.4361 18.125 17.1875 18.125H16.25C16.0842 18.125 15.9253 18.1908 15.8081 18.3081C15.6908 18.4253 15.625 18.5842 15.625 18.75V23.75C15.625 23.9158 15.6908 24.0747 15.8081 24.1919C15.9253 24.3091 16.0842 24.375 16.25 24.375H17.1875C17.4361 24.375 17.6746 24.4738 17.8504 24.6496C18.0262 24.8254 18.125 25.0639 18.125 25.3125V26.25C18.125 26.4158 18.1908 26.5747 18.3081 26.6919C18.4253 26.8091 18.5842 26.875 18.75 26.875H29.7487C29.4034 25.2364 28.7234 23.6867 27.7514 22.323C26.7794 20.9593 25.5363 19.811 24.1 18.95L18.125 15.3675Z" fill="#F8312F"/>
<path d="M16.25 17.5C15.9631 17.4999 15.6849 17.5984 15.4621 17.7792C15.2392 17.9599 15.0854 18.2118 15.0262 18.4925C15.017 18.5529 15.0124 18.6139 15.0125 18.675V20H8.75V22.5H15.0125V23.825C15.0125 23.8875 15.0175 23.9475 15.0262 24.0075C15.0854 24.2882 15.2392 24.5401 15.4621 24.7208C15.6849 24.9016 15.9631 25.0001 16.25 25H17.1875C17.3512 25 17.4862 25.125 17.5 25.2863C17.508 25.3194 17.5122 25.3534 17.5125 25.3875V26.325C17.5125 26.3875 17.5175 26.4475 17.5262 26.5075C17.5854 26.7882 17.7392 27.0401 17.9621 27.2208C18.1849 27.4016 18.4631 27.5001 18.75 27.5H29.8625C29.7971 27.079 29.7094 26.6618 29.6 26.25H25.0125V19.5625C24.725 19.3375 24.4125 19.1375 24.1 18.95L23.7625 18.75V26.25H18.75V25.3125C18.75 24.45 18.05 23.75 17.1875 23.75H16.25V18.75H17.1875C18.05 18.75 18.75 18.05 18.75 17.1875V15.7425L17.5125 15V17.1125C17.5129 17.1467 17.5087 17.1807 17.5 17.2137C17.4934 17.292 17.4576 17.3649 17.3997 17.4179C17.3418 17.471 17.266 17.5003 17.1875 17.5H16.25Z" fill="#636363"/>
<path d="M19.3875 22.675C19.5746 22.675 19.7599 22.6382 19.9328 22.5665C20.1057 22.4949 20.2628 22.39 20.3951 22.2576C20.5274 22.1253 20.6324 21.9682 20.704 21.7953C20.7756 21.6224 20.8125 21.4371 20.8125 21.25C20.8125 21.0629 20.7756 20.8776 20.704 20.7047C20.6324 20.5318 20.5274 20.3747 20.3951 20.2424C20.2628 20.1101 20.1057 20.0051 19.9328 19.9335C19.7599 19.8619 19.5746 19.825 19.3875 19.825C19.0095 19.825 18.6471 19.9751 18.3798 20.2424C18.1126 20.5096 17.9625 20.8721 17.9625 21.25C17.9625 21.6279 18.1126 21.9904 18.3798 22.2576C18.6471 22.5249 19.0095 22.675 19.3875 22.675Z" fill="#FBB8AB"/>
<path d="M7.51248 12.5875C7.51248 11.85 6.91248 11.25 6.18748 11.25H3.38748C2.89998 11.2625 2.49998 11.65 2.49998 12.15V12.4875C2.49719 13.1444 2.6241 13.7955 2.87345 14.4032C3.12279 15.011 3.48967 15.5636 3.95303 16.0293C4.41639 16.4949 4.96713 16.8646 5.57365 17.117C6.18017 17.3693 6.83055 17.4995 7.48748 17.5H7.51248V12.5875Z" fill="#A56953"/>
<path d="M3.4375 13.125H4.0625C4.31114 13.125 4.5496 13.0262 4.72541 12.8504C4.90123 12.6746 5 12.4361 5 12.1875C5 11.9389 4.90123 11.7004 4.72541 11.5246C4.5496 11.3488 4.31114 11.25 4.0625 11.25H3.4375C2.925 11.25 2.5 11.675 2.5 12.1875C2.5 12.7 2.925 13.125 3.4375 13.125ZM10.0125 12.85C10.0125 13.2 10.2875 13.475 10.6375 13.475C10.9875 13.475 11.2625 13.2 11.2625 12.8625V12.15C11.2625 11.8 10.9875 11.525 10.6375 11.525C10.2875 11.525 10.0125 11.8 10.0125 12.15V12.85Z" fill="#212121"/>
</svg>
